<svg xmlns="http://www.w3.org/2000/svg" xmlns:xlink="http://www.w3.org/1999/xlink" width="7997" zoomAndPan="magnify" viewBox="0 0 5997.75 1882.499944" height="2510" preserveAspectRatio="xMidYMid meet" version="1.2"><defs><clipPath id="70788970cf"><path d="M 1263 662 L 2000 662 L 2000 1398.582031 L 1263 1398.582031 Z M 1263 662 "/></clipPath></defs><g id="49cb9c10f9"><g clip-rule="nonzero" clip-path="url(#70788970cf)"><path style=" stroke:none;fill-rule:nonzero;fill:#d9d9d9;fill-opacity:1;" d="M 1982.492188 989.988281 L 1672.105469 679.597656 C 1649.660156 657.152344 1613.265625 657.152344 1590.820312 679.597656 L 1280.429688 989.988281 C 1257.984375 1012.433594 1257.984375 1048.828125 1280.429688 1071.273438 C 1297.636719 1088.480469 1323.03125 1092.480469 1344.066406 1083.308594 L 1344.066406 1312.277344 C 1344.066406 1359.894531 1382.667969 1398.496094 1430.285156 1398.496094 L 1832.640625 1398.496094 C 1880.257812 1398.496094 1918.859375 1359.894531 1918.859375 1312.277344 L 1918.859375 1083.308594 C 1939.890625 1092.480469 1965.285156 1088.480469 1982.492188 1071.273438 C 2004.941406 1048.828125 2004.941406 1012.433594 1982.492188 989.988281 Z M 1732.050781 1283.539062 C 1732.050781 1299.410156 1719.183594 1312.277344 1703.3125 1312.277344 L 1559.613281 1312.277344 C 1543.738281 1312.277344 1530.875 1299.410156 1530.875 1283.539062 L 1530.875 1111.101562 C 1530.875 1095.226562 1543.738281 1082.359375 1559.613281 1082.359375 L 1703.3125 1082.359375 C 1719.183594 1082.359375 1732.050781 1095.226562 1732.050781 1111.101562 Z M 1732.050781 1283.539062 "/></g><g style="fill:#d9d9d9;fill-opacity:1;"><g transform="translate(46.833795, 1371.251321)"><path style="stroke:none" d="M 209.203125 -541.8125 C 209.203125 -523.8125 218.039062 -508.0625 235.71875 -494.5625 C 253.394531 -481.070312 276.210938 -468.0625 304.171875 -455.53125 C 332.128906 -443 362.015625 -429.660156 393.828125 -415.515625 C 425.640625 -401.378906 455.523438 -384.988281 483.484375 -366.34375 C 511.441406 -347.707031 534.414062 -325.375 552.40625 -299.34375 C 570.40625 -273.3125 579.40625 -241.976562 579.40625 -205.34375 C 579.40625 -164.207031 567.191406 -126.769531 542.765625 -93.03125 C 518.347656 -59.289062 484.925781 -32.617188 442.5 -13.015625 C 400.082031 6.585938 351.5625 16.390625 296.9375 16.390625 C 243.59375 16.390625 194.265625 5.945312 148.953125 -14.9375 C 103.640625 -35.832031 65.878906 -65.878906 35.671875 -105.078125 C 31.816406 -109.578125 30.367188 -114.238281 31.328125 -119.0625 C 32.296875 -123.882812 35.03125 -127.898438 39.53125 -131.109375 L 80.984375 -159.078125 C 90.617188 -166.140625 99.617188 -164.851562 107.984375 -155.21875 C 152.328125 -103.15625 215.3125 -77.125 296.9375 -77.125 C 332.925781 -77.125 359.4375 -81.941406 376.46875 -91.578125 C 393.5 -101.222656 402.015625 -115.046875 402.015625 -133.046875 C 402.015625 -153.609375 393.015625 -171.28125 375.015625 -186.0625 C 357.023438 -200.84375 334.050781 -214.820312 306.09375 -228 C 278.132812 -241.175781 248.25 -254.832031 216.4375 -268.96875 C 184.625 -283.113281 154.738281 -299.34375 126.78125 -317.65625 C 98.820312 -335.976562 75.84375 -357.832031 57.84375 -383.21875 C 39.84375 -408.601562 30.84375 -438.972656 30.84375 -474.328125 C 30.84375 -515.460938 43.535156 -552.414062 68.921875 -585.1875 C 94.316406 -617.96875 128.703125 -643.835938 172.078125 -662.796875 C 215.460938 -681.765625 264.472656 -691.25 319.109375 -691.25 C 365.390625 -691.25 408.613281 -684.335938 448.78125 -670.515625 C 488.945312 -656.691406 522.207031 -637.570312 548.5625 -613.15625 C 556.269531 -605.4375 556.59375 -596.757812 549.53125 -587.125 L 508.0625 -542.78125 C 499.707031 -533.132812 490.390625 -532.8125 480.109375 -541.8125 C 456.972656 -563.019531 433.832031 -577.800781 410.6875 -586.15625 C 387.550781 -594.507812 359.597656 -598.6875 326.828125 -598.6875 C 288.898438 -598.6875 259.8125 -593.863281 239.5625 -584.21875 C 219.320312 -574.582031 209.203125 -560.445312 209.203125 -541.8125 Z M 209.203125 -541.8125 "/></g></g><g style="fill:#d9d9d9;fill-opacity:1;"><g transform="translate(650.346399, 1371.251321)"><path style="stroke:none" d="M 205.34375 -588.09375 L 43.390625 -588.09375 C 30.535156 -588.09375 24.109375 -594.519531 24.109375 -607.375 L 24.109375 -655.578125 C 24.109375 -668.429688 30.535156 -674.859375 43.390625 -674.859375 L 584.234375 -674.859375 C 597.085938 -674.859375 603.515625 -668.429688 603.515625 -655.578125 L 603.515625 -607.375 C 603.515625 -594.519531 597.085938 -588.09375 584.234375 -588.09375 L 422.265625 -588.09375 C 409.410156 -588.09375 402.984375 -581.664062 402.984375 -568.8125 L 402.984375 -19.28125 C 402.984375 -6.425781 396.554688 0 383.703125 0 L 243.90625 0 C 231.050781 0 224.625 -6.425781 224.625 -19.28125 L 224.625 -568.8125 C 224.625 -581.664062 218.195312 -588.09375 205.34375 -588.09375 Z M 205.34375 -588.09375 "/></g></g><g style="fill:#d9d9d9;fill-opacity:1;"><g transform="translate(2008.27133, 1371.251321)"><path style="stroke:none" d="M 230.421875 -663.28125 L 328.75 -423.234375 C 333.894531 -411.015625 339.679688 -404.742188 346.109375 -404.421875 C 352.535156 -404.109375 358.316406 -409.734375 363.453125 -421.296875 L 480.109375 -664.25 C 484.609375 -671.320312 490.710938 -674.859375 498.421875 -674.859375 L 561.09375 -674.859375 C 570.09375 -674.859375 576.195312 -672.285156 579.40625 -667.140625 C 582.625 -661.992188 581.984375 -655.242188 577.484375 -646.890625 L 389.484375 -269.9375 C 388.203125 -267.363281 387.5625 -264.472656 387.5625 -261.265625 L 387.5625 -19.28125 C 387.5625 -6.425781 381.132812 0 368.28125 0 L 228.484375 0 C 215.628906 0 209.203125 -6.425781 209.203125 -19.28125 L 209.203125 -247.765625 C 209.203125 -249.054688 208.5625 -251.628906 207.28125 -255.484375 L 35.671875 -647.859375 C 32.453125 -656.210938 32.445312 -662.800781 35.65625 -667.625 C 38.875 -672.445312 44.984375 -674.859375 53.984375 -674.859375 L 213.0625 -674.859375 C 221.414062 -674.859375 227.203125 -671 230.421875 -663.28125 Z M 230.421875 -663.28125 "/></g></g><g style="fill:#d9d9d9;fill-opacity:1;"><g transform="translate(2624.316963, 1371.251321)"><path style="stroke:none" d=""/></g></g><g style="fill:#d9d9d9;fill-opacity:1;"><g transform="translate(2937.642051, 1371.251321)"><path style="stroke:none" d="M 209.203125 -541.8125 C 209.203125 -523.8125 218.039062 -508.0625 235.71875 -494.5625 C 253.394531 -481.070312 276.210938 -468.0625 304.171875 -455.53125 C 332.128906 -443 362.015625 -429.660156 393.828125 -415.515625 C 425.640625 -401.378906 455.523438 -384.988281 483.484375 -366.34375 C 511.441406 -347.707031 534.414062 -325.375 552.40625 -299.34375 C 570.40625 -273.3125 579.40625 -241.976562 579.40625 -205.34375 C 579.40625 -164.207031 567.191406 -126.769531 542.765625 -93.03125 C 518.347656 -59.289062 484.925781 -32.617188 442.5 -13.015625 C 400.082031 6.585938 351.5625 16.390625 296.9375 16.390625 C 243.59375 16.390625 194.265625 5.945312 148.953125 -14.9375 C 103.640625 -35.832031 65.878906 -65.878906 35.671875 -105.078125 C 31.816406 -109.578125 30.367188 -114.238281 31.328125 -119.0625 C 32.296875 -123.882812 35.03125 -127.898438 39.53125 -131.109375 L 80.984375 -159.078125 C 90.617188 -166.140625 99.617188 -164.851562 107.984375 -155.21875 C 152.328125 -103.15625 215.3125 -77.125 296.9375 -77.125 C 332.925781 -77.125 359.4375 -81.941406 376.46875 -91.578125 C 393.5 -101.222656 402.015625 -115.046875 402.015625 -133.046875 C 402.015625 -153.609375 393.015625 -171.28125 375.015625 -186.0625 C 357.023438 -200.84375 334.050781 -214.820312 306.09375 -228 C 278.132812 -241.175781 248.25 -254.832031 216.4375 -268.96875 C 184.625 -283.113281 154.738281 -299.34375 126.78125 -317.65625 C 98.820312 -335.976562 75.84375 -357.832031 57.84375 -383.21875 C 39.84375 -408.601562 30.84375 -438.972656 30.84375 -474.328125 C 30.84375 -515.460938 43.535156 -552.414062 68.921875 -585.1875 C 94.316406 -617.96875 128.703125 -643.835938 172.078125 -662.796875 C 215.460938 -681.765625 264.472656 -691.25 319.109375 -691.25 C 365.390625 -691.25 408.613281 -684.335938 448.78125 -670.515625 C 488.945312 -656.691406 522.207031 -637.570312 548.5625 -613.15625 C 556.269531 -605.4375 556.59375 -596.757812 549.53125 -587.125 L 508.0625 -542.78125 C 499.707031 -533.132812 490.390625 -532.8125 480.109375 -541.8125 C 456.972656 -563.019531 433.832031 -577.800781 410.6875 -586.15625 C 387.550781 -594.507812 359.597656 -598.6875 326.828125 -598.6875 C 288.898438 -598.6875 259.8125 -593.863281 239.5625 -584.21875 C 219.320312 -574.582031 209.203125 -560.445312 209.203125 -541.8125 Z M 209.203125 -541.8125 "/></g></g><g style="fill:#d9d9d9;fill-opacity:1;"><g transform="translate(3550.795491, 1371.251321)"><path style="stroke:none" d="M 67.484375 -19.28125 L 67.484375 -655.578125 C 67.484375 -668.429688 73.910156 -674.859375 86.765625 -674.859375 L 384.671875 -674.859375 C 426.441406 -674.859375 464.359375 -664.570312 498.421875 -644 C 532.492188 -623.4375 559.648438 -595.960938 579.890625 -561.578125 C 600.140625 -527.191406 610.265625 -488.789062 610.265625 -446.375 C 610.265625 -404.59375 600.140625 -366.347656 579.890625 -331.640625 C 559.648438 -296.929688 532.492188 -269.289062 498.421875 -248.71875 C 464.359375 -228.15625 426.441406 -217.875 384.671875 -217.875 L 265.125 -217.875 C 252.269531 -217.875 245.84375 -211.445312 245.84375 -198.59375 L 245.84375 -19.28125 C 245.84375 -6.425781 239.414062 0 226.5625 0 L 86.765625 0 C 73.910156 0 67.484375 -6.425781 67.484375 -19.28125 Z M 245.84375 -568.8125 L 245.84375 -323.9375 C 245.84375 -311.082031 252.269531 -304.65625 265.125 -304.65625 L 333.578125 -304.65625 C 348.359375 -304.65625 361.691406 -311.082031 373.578125 -323.9375 C 385.472656 -336.789062 395.113281 -353.984375 402.5 -375.515625 C 409.894531 -397.046875 413.59375 -420.664062 413.59375 -446.375 C 413.59375 -472.71875 409.894531 -496.492188 402.5 -517.703125 C 395.113281 -538.921875 385.472656 -555.957031 373.578125 -568.8125 C 361.691406 -581.664062 348.359375 -588.09375 333.578125 -588.09375 L 265.125 -588.09375 C 252.269531 -588.09375 245.84375 -581.664062 245.84375 -568.8125 Z M 245.84375 -568.8125 "/></g></g><g style="fill:#d9d9d9;fill-opacity:1;"><g transform="translate(4122.493188, 1371.251321)"><path style="stroke:none" d="M 111.828125 0 L 51.09375 0 C 42.738281 0 36.953125 -2.410156 33.734375 -7.234375 C 30.523438 -12.054688 30.207031 -18.320312 32.78125 -26.03125 L 255.484375 -662.328125 C 258.691406 -670.679688 264.796875 -674.859375 273.796875 -674.859375 L 384.671875 -674.859375 C 393.671875 -674.859375 399.773438 -670.679688 402.984375 -662.328125 L 625.6875 -26.03125 C 628.257812 -18.320312 627.9375 -12.054688 624.71875 -7.234375 C 621.507812 -2.410156 615.726562 0 607.375 0 L 458.90625 0 C 449.90625 0 443.796875 -4.5 440.578125 -13.5 L 391.421875 -161.96875 C 389.492188 -170.96875 383.382812 -175.46875 373.09375 -175.46875 L 197.640625 -175.46875 C 188.640625 -175.46875 182.53125 -170.96875 179.3125 -161.96875 L 130.15625 -13.5 C 126.9375 -4.5 120.828125 0 111.828125 0 Z M 349.953125 -287.296875 L 303.6875 -427.09375 C 298.539062 -443.800781 292.429688 -452.15625 285.359375 -452.15625 C 278.296875 -452.15625 272.191406 -443.800781 267.046875 -427.09375 L 221.734375 -287.296875 C 219.160156 -279.578125 219.476562 -273.46875 222.6875 -268.96875 C 225.90625 -264.476562 231.695312 -262.234375 240.0625 -262.234375 L 331.640625 -262.234375 C 348.992188 -262.234375 355.097656 -270.585938 349.953125 -287.296875 Z M 349.953125 -287.296875 "/></g></g><g style="fill:#d9d9d9;fill-opacity:1;"><g transform="translate(4732.754383, 1371.251321)"><path style="stroke:none" d="M 431.90625 -79.046875 C 487.820312 -79.046875 534.421875 -104.113281 571.703125 -154.25 C 580.054688 -164.53125 589.375 -166.140625 599.65625 -159.078125 L 641.109375 -130.15625 C 650.109375 -124.363281 652.035156 -116.003906 646.890625 -105.078125 C 621.179688 -67.160156 586.957031 -37.4375 544.21875 -15.90625 C 501.476562 5.625 453.757812 16.390625 401.0625 16.390625 C 352.207031 16.390625 306.410156 7.234375 263.671875 -11.078125 C 220.929688 -29.398438 183.492188 -54.789062 151.359375 -87.25 C 119.222656 -119.707031 93.992188 -157.46875 75.671875 -200.53125 C 57.359375 -243.59375 48.203125 -289.546875 48.203125 -338.390625 C 48.203125 -387.878906 57.359375 -433.832031 75.671875 -476.25 C 93.992188 -518.675781 119.382812 -556.113281 151.84375 -588.5625 C 184.300781 -621.019531 222.21875 -646.25 265.59375 -664.25 C 308.976562 -682.25 355.414062 -691.25 404.90625 -691.25 C 448.613281 -691.25 491.351562 -684.175781 533.125 -670.03125 C 574.90625 -655.894531 608.648438 -636.9375 634.359375 -613.15625 C 642.078125 -605.4375 642.398438 -596.757812 635.328125 -587.125 L 594.84375 -542.78125 C 590.34375 -538.28125 585.519531 -536.03125 580.375 -536.03125 C 575.226562 -536.03125 570.40625 -537.957031 565.90625 -541.8125 C 526.707031 -577.800781 482.679688 -595.796875 433.828125 -595.796875 C 395.910156 -595.796875 362.648438 -585.191406 334.046875 -563.984375 C 305.453125 -542.773438 283.441406 -513.050781 268.015625 -474.8125 C 252.585938 -436.570312 244.875 -391.421875 244.875 -339.359375 C 244.875 -287.296875 252.742188 -241.660156 268.484375 -202.453125 C 284.234375 -163.242188 306.25 -132.875 334.53125 -111.34375 C 362.8125 -89.8125 395.269531 -79.046875 431.90625 -79.046875 Z M 431.90625 -79.046875 "/></g></g><g style="fill:#d9d9d9;fill-opacity:1;"><g transform="translate(5422.069896, 1371.251321)"><path style="stroke:none" d="M 374.0625 -294.046875 L 265.125 -294.046875 C 252.269531 -294.046875 245.84375 -287.617188 245.84375 -274.765625 L 245.84375 -106.046875 C 245.84375 -93.191406 252.269531 -86.765625 265.125 -86.765625 L 518.671875 -86.765625 C 531.523438 -86.765625 537.953125 -80.335938 537.953125 -67.484375 L 537.953125 -19.28125 C 537.953125 -6.425781 531.523438 0 518.671875 0 L 86.765625 0 C 73.910156 0 67.484375 -6.425781 67.484375 -19.28125 L 67.484375 -655.578125 C 67.484375 -668.429688 73.910156 -674.859375 86.765625 -674.859375 L 499.390625 -674.859375 C 512.242188 -674.859375 518.671875 -668.429688 518.671875 -655.578125 L 518.671875 -607.375 C 518.671875 -594.519531 512.242188 -588.09375 499.390625 -588.09375 L 265.125 -588.09375 C 252.269531 -588.09375 245.84375 -581.664062 245.84375 -568.8125 L 245.84375 -400.09375 C 245.84375 -387.238281 252.269531 -380.8125 265.125 -380.8125 L 374.0625 -380.8125 C 386.914062 -380.8125 393.34375 -374.382812 393.34375 -361.53125 L 393.34375 -313.328125 C 393.34375 -300.472656 386.914062 -294.046875 374.0625 -294.046875 Z M 374.0625 -294.046875 "/></g></g></g></svg>