<svg xmlns="http://www.w3.org/2000/svg" xmlns:xlink="http://www.w3.org/1999/xlink" width="500" zoomAndPan="magnify" viewBox="0 0 375 374.999991" height="500" preserveAspectRatio="xMidYMid meet" version="1.2"><g id="787c00ae68"><path style=" stroke:none;fill-rule:nonzero;fill:#d9d9d9;fill-opacity:1;" d="M 366.394531 168.363281 L 209.425781 11.394531 C 198.074219 0.0429688 179.667969 0.0429688 168.316406 11.394531 L 11.347656 168.363281 C -0.00390625 179.714844 -0.00390625 198.121094 11.347656 209.472656 C 20.050781 218.171875 32.894531 220.195312 43.53125 215.558594 L 43.53125 331.351562 C 43.53125 355.433594 63.050781 374.953125 87.132812 374.953125 L 290.609375 374.953125 C 314.691406 374.953125 334.210938 355.433594 334.210938 331.351562 L 334.210938 215.558594 C 344.847656 220.195312 357.691406 218.171875 366.394531 209.472656 C 377.746094 198.121094 377.746094 179.714844 366.394531 168.363281 Z M 239.742188 316.816406 C 239.742188 324.84375 233.234375 331.351562 225.207031 331.351562 L 152.535156 331.351562 C 144.507812 331.351562 138 324.84375 138 316.816406 L 138 229.613281 C 138 221.585938 144.507812 215.078125 152.535156 215.078125 L 225.207031 215.078125 C 233.234375 215.078125 239.742188 221.585938 239.742188 229.613281 Z M 239.742188 316.816406 "/></g></svg>